<svg xmlns="http://www.w3.org/2000/svg" width="27.762" height="26.485" viewBox="0 0 27.762 26.485">
  <g id="Group_6549" data-name="Group 6549" transform="translate(0.5 0.498)">
    <path id="Path_5" data-name="Path 5" d="M385.51,239.942a.914.914,0,0,1,.524-.4.719.719,0,0,1,.9.671c.015,1.168.01,2.336,0,3.5a.689.689,0,0,1-.486.661.716.716,0,0,1-.816-.226c-.1-.124-.141-.146-.278-.034a1.788,1.788,0,0,1-1.781.3,2.294,2.294,0,0,1-1.582-2.142,2.433,2.433,0,0,1,1.189-2.544A1.856,1.856,0,0,1,385.51,239.942Zm-2.066,2.136a1.277,1.277,0,0,0,.246.706.959.959,0,0,0,1.532,0,1.451,1.451,0,0,0,0-1.616.889.889,0,0,0-.693-.372C383.886,240.757,383.437,241.253,383.444,242.079Z" transform="translate(-369.703 -230.628)" fill="#fff"/>
    <path id="Union_1" data-name="Union 1" d="M3.329,25.456A3.505,3.505,0,0,1,0,21.908c0-6.1.014-12.194,0-18.29A3.543,3.543,0,0,1,3.5.027C5.468-.024,7.436.013,9.4.015c.034,0,.081-.018.1.039-.014.1-.117.115-.186.154A12.629,12.629,0,0,0,6.217,2.7,11.245,11.245,0,0,0,3.392,8.482a11.1,11.1,0,0,0,3.38,10,1.066,1.066,0,0,1,.162,1.55,5.817,5.817,0,0,1-1.955,1.842,2.472,2.472,0,0,0-.243.163c-.124.1-.046.156.057.2a8.874,8.874,0,0,0,4.378-.349c.485-.147.971-.29,1.46-.416a1.7,1.7,0,0,1,1,.044,14.557,14.557,0,0,0,10.961-.421,12.853,12.853,0,0,0,3.935-2.7c.06-.058.1-.145.2-.152a.428.428,0,0,1,.025.255q0,1.707,0,3.417a3.529,3.529,0,0,1-3.531,3.557c-2.1.012-4.208,0-6.313,0H8.471c-.117,0-.235-.007-.351-.012-.995,0-1.99.022-2.984.022C4.533,25.487,3.931,25.48,3.329,25.456Z" transform="translate(0 0)" fill="#fff" stroke="rgba(0,0,0,0)" stroke-miterlimit="10" stroke-width="1"/>
    <path id="Path_4" data-name="Path 4" d="M294.545,219.593c.884,0,1.71-.005,2.535,0,.464,0,.714.2.757.566a.651.651,0,0,1-.716.775c-.944.011-1.889,0-2.834,0-.273,0-.546.01-.818-.006a.856.856,0,0,1-.832-.436.867.867,0,0,1,.175-.95q1.354-1.722,2.709-3.442c.054-.068.105-.138.158-.206-.055-.1-.143-.055-.211-.055-.633,0-1.266,0-1.9,0a1.778,1.778,0,0,1-.433-.049.614.614,0,0,1-.011-1.194,1.634,1.634,0,0,1,.433-.053q1.563-.006,3.126,0a1.67,1.67,0,0,1,.548.067.635.635,0,0,1,.408.886,3.967,3.967,0,0,1-.585.9q-1.146,1.458-2.3,2.913C294.7,219.389,294.642,219.466,294.545,219.593Z" transform="translate(-285.518 -207.203)" fill="#fff"/>
    <path id="Path_6" data-name="Path 6" d="M511.818,242.532a2.486,2.486,0,1,1,2.706,2.413A2.384,2.384,0,0,1,511.818,242.532Zm1.47-.141a1.321,1.321,0,0,0,.249.82.96.96,0,0,0,1.514.011,1.452,1.452,0,0,0,.006-1.639.887.887,0,0,0-.7-.368A1.046,1.046,0,0,0,513.287,242.391Z" transform="translate(-491.961 -231.049)" fill="#fff"/>
    <path id="Path_7" data-name="Path 7" d="M479.362,209.239c0,.905,0,1.811,0,2.716a.735.735,0,1,1-1.468-.008q0-2.322,0-4.643c0-.273,0-.545,0-.818a.734.734,0,1,1,1.468.008C479.366,207.409,479.362,208.324,479.362,209.239Z" transform="translate(-460.018 -198.917)" fill="#fff"/>
    <path id="Path_8" data-name="Path 8" d="M407.189,264.22c-.007-.826.442-1.321,1.083-1.284a.889.889,0,0,1,.693.372,1.451,1.451,0,0,1,0,1.616.959.959,0,0,1-1.532,0A1.278,1.278,0,0,1,407.189,264.22Z" transform="translate(-393.448 -252.77)" fill="none"/>
    <rect id="Rectangle_1" data-name="Rectangle 1" width="26.769" height="25.305" rx="12.653" transform="translate(0.025 0.036)" fill="none"/>
  </g>
</svg>
