<svg xmlns="http://www.w3.org/2000/svg" width="64" height="65" viewBox="0 0 64 65">
  <g id="Group_5578" data-name="Group 5578" transform="translate(-0.329 -10376.91)">
    <ellipse id="Ellipse_8" data-name="Ellipse 8" cx="32" cy="32.5" rx="32" ry="32.5" transform="translate(0.329 10376.91)" fill="#0e1c47"/>
    <path id="Path_100" data-name="Path 100" d="M1796.132,1603.134c9.474,0,17.155,7.07,17.155,15.792s-7.681,15.792-17.155,15.792a18.527,18.527,0,0,1-4.894-.653l-5.96,3.441v-6.352a15.316,15.316,0,0,1-6.3-12.229c0-8.722,7.68-15.792,17.155-15.792Zm-10.748,20.432,8.024-3.916,1.046,1.025,3.219,3.287.066-.065.032.031.019-.081,9.065-8.878-8.061,3.831-4.322-4.321Z" transform="translate(-1764.005 8789.202)" fill="#fff" fill-rule="evenodd"/>
  </g>
</svg>
