<svg xmlns="http://www.w3.org/2000/svg" width="64" height="64" viewBox="0 0 64 64">
  <g id="Group_5577" data-name="Group 5577" transform="translate(-0.329 -10278.756)">
    <circle id="Ellipse_10" data-name="Ellipse 10" cx="32" cy="32" r="32" transform="translate(0.329 10278.756)" fill="#0e1c47"/>
    <path id="Path_11479" data-name="Path 11479" d="M547.788,185.558a4.711,4.711,0,0,1,6.659-.164l1.981,1.884a4.713,4.713,0,0,1,.165,6.66l-1.234,1.3h0a4.7,4.7,0,0,1-2.165,1.3l-.368.1a.815.815,0,0,0-.524,1.13l.161.346a24.08,24.08,0,0,0,12.431,12l.313.132a.814.814,0,0,0,1.083-.473l.115-.316a4.687,4.687,0,0,1,1.013-1.632l1.235-1.3a4.708,4.708,0,0,1,6.659-.165l1.981,1.885a4.716,4.716,0,0,1,.165,6.659l-1.236,1.3a4.8,4.8,0,0,1-1.194.91,6.967,6.967,0,0,1-4.272.766,30.175,30.175,0,0,1-26.2-24.931c-.462-2.757.588-4.748,1.407-5.413a.775.775,0,0,0,.076-.07l.057-.06a.817.817,0,0,0,.068-.082,4.593,4.593,0,0,1,.388-.465Z" transform="translate(-529.448 10109.701)" fill="#fff"/>
  </g>
</svg>
