<svg xmlns="http://www.w3.org/2000/svg" width="64" height="64" viewBox="0 0 64 64">
  <g id="Group_5579" data-name="Group 5579" transform="translate(-0.329 -10448.189)">
    <circle id="Ellipse_9" data-name="Ellipse 9" cx="32" cy="32" r="32" transform="translate(0.329 10448.189)" fill="#0e1c47"/>
    <g id="Group_5576" data-name="Group 5576" transform="translate(7.505 10470.58)">
      <path id="Path_4" data-name="Path 4" d="M298.018,228.571c2.431,0,4.7-.014,6.968.006,1.274.011,1.963.559,2.081,1.573A1.8,1.8,0,0,1,305.1,232.3c-2.6.03-5.194.011-7.79.011-.75,0-1.5.026-2.248-.017a2.348,2.348,0,0,1-2.289-1.211,2.425,2.425,0,0,1,.481-2.638q3.722-4.781,7.449-9.558c.147-.189.29-.382.433-.572-.152-.277-.392-.153-.58-.154-1.74-.011-3.48,0-5.22-.013a4.843,4.843,0,0,1-1.19-.137,1.71,1.71,0,0,1-.03-3.315,4.45,4.45,0,0,1,1.189-.147q4.3-.018,8.594,0a4.548,4.548,0,0,1,1.507.186,1.768,1.768,0,0,1,1.123,2.46,11.026,11.026,0,0,1-1.609,2.511q-3.15,4.049-6.312,8.089C298.442,228,298.285,228.217,298.018,228.571Z" transform="translate(-292.56 -213.126)" fill="#fff"/>
      <path id="Path_5" data-name="Path 5" d="M391.7,240.858a2.513,2.513,0,0,1,1.441-1.091,1.977,1.977,0,0,1,2.476,1.846c.042,3.211.027,6.423.008,9.634a1.9,1.9,0,0,1-1.336,1.818,1.967,1.967,0,0,1-2.245-.622c-.271-.342-.387-.4-.765-.094a4.916,4.916,0,0,1-4.9.815c-2.862-.928-4.039-3.158-4.35-5.888a6.689,6.689,0,0,1,3.268-6.994A5.1,5.1,0,0,1,391.7,240.858Zm-5.679,5.873a3.511,3.511,0,0,0,.676,1.94,2.635,2.635,0,0,0,4.213,0,3.99,3.99,0,0,0-.005-4.443A2.443,2.443,0,0,0,389,243.2C387.237,243.1,386,244.461,386.022,246.731Z" transform="translate(-367.427 -233.833)" fill="#fff"/>
      <path id="Path_6" data-name="Path 6" d="M511.82,247.2c-.123-4.125,2.584-7.208,6.433-7.326a6.661,6.661,0,0,1,7.213,6.634c.124,4.06-2.367,6.94-6.208,7.325A6.555,6.555,0,0,1,511.82,247.2Zm4.04-.388a3.636,3.636,0,0,0,.685,2.255,2.639,2.639,0,0,0,4.164.03,3.992,3.992,0,0,0,.016-4.5,2.44,2.44,0,0,0-1.911-1.012C517.078,243.484,515.867,244.811,515.86,246.808Z" transform="translate(-476.152 -234.208)" fill="#fff"/>
      <path id="Path_7" data-name="Path 7" d="M481.937,215.446c0,2.512.013,5.023-.005,7.535a2.023,2.023,0,1,1-4.036-.023q-.009-6.441,0-12.882c0-.756-.01-1.513,0-2.269a2.019,2.019,0,1,1,4.036.023C481.948,210.369,481.937,212.908,481.937,215.446Z" transform="translate(-447.824 -205.74)" fill="#fff"/>
    </g>
  </g>
</svg>
